# xmcd CD database file
#
# Track frame offsets:
#	150
#	13660
#	27541
#	40122
#	53655
#	64289
#	79378
#	92225
#	107431
#	117699
#	131553
#	148334
#	166312
#	179180
#	193837
#	204689
#
# Disc length: 2901 seconds
#
# Revision: 0
# Processed by: cddbd v1.5.2PL0 Copyright (c) Steve Scherf et al.
# Submitted via: CDex 1.50
#
DISCID=f70b5310
DTITLE=Chet Baker - A Love Like This
DYEAR=2007
DGENRE=Jazz
TTITLE0=I get along without you very well
TTITLE1=That old feeling
TTITLE2=Time after time
TTITLE3=There will never be another you
TTITLE4=My funny valentine
TTITLE5=My buddy
TTITLE6=Line for lyons
TTITLE7=I fall in love too easily
TTITLE8=Let me be loved
TTITLE9=But not for me
TTITLE10=Let's get lost
TTITLE11=I wish I knew
TTITLE12=The thrill is gone
TTITLE13=I remember you
TTITLE14=The night we called it a day
TTITLE15=There's a lull in my life
EXTD=YEAR: 2007
EXTT0=
EXTT1=
EXTT2=
EXTT3=
EXTT4=
EXTT5=
EXTT6=
EXTT7=
EXTT8=
EXTT9=
EXTT10=
EXTT11=
EXTT12=
EXTT13=
EXTT14=
EXTT15=
PLAYORDER=
